#!OML:ASF H:\Dans Jumps\Project 1\Capture day 1\Session 1\subject.ASF
:FULLY-SPECIFIED
:DEGREES
327
root 0.412991 17.1988 -7.00498 7.9846 1.02971 -0.829442
lowerback 5.30474 0.0225102 -1.23271
upperback 5.61574 -0.0312891 1.45375
thorax 2.81754 -0.0878073 2.19005
lowerneck -13.2843 -0.469863 -1.56608
upperneck 31.8538 -0.755304 1.53943
head 12.8219 -0.316478 0.757852
rclavicle -1.88845e-015 4.37326e-015
rhumerus -59.5153 -31.1694 -42.3013
rradius 17.3497
rwrist 51.3842
rhand -14.3008 -25.643
rfingers 7.12502
rthumb 11.839 -55.2883
lclavicle -1.88845e-015 4.37326e-015
lhumerus -51.8105 -3.20328 82.1373
lradius 15.8905
lwrist 3.93394
lhand -13.258 5.19248
lfingers 7.12502
lthumb 12.8445 34.7773
rfemur -25.7519 -3.52203 18.446
rtibia 38.6847
rfoot -19.156 -2.94085
rtoes 4.95429
lfemur -25.1686 5.90231 -19.9385
ltibia 35.8953
lfoot -16.3257 7.50534
ltoes 2.40997
328
root 0.411131 17.2032 -6.99724 8.05813 1.13103 -0.798177
lowerback 5.32774 0.0194876 -1.23566
upperback 5.6333 -0.0355482 1.45973
thorax 2.82328 -0.0902867 2.19807
lowerneck -13.2508 -0.490074 -1.59335
upperneck 31.8478 -0.776332 1.53867
head 12.8128 -0.328806 0.759288
rclavicle 0 -5.36719e-015
rhumerus -59.9927 -31.0011 -41.8085
rradius 17.3249
rwrist 51.6373
rhand -13.9816 -25.5758
rfingers 7.12502
rthumb 12.1468 -55.2032
lclavicle 0 -5.36719e-015
lhumerus -51.7777 -2.75997 81.4422
lradius 15.5903
lwrist 3.26168
lhand -13.5172 5.17073
lfingers 7.12502
lthumb 12.5946 34.7711
rfemur -25.7516 -3.53411 18.4261
rtibia 38.6167
rfoot -19.1384 -3.02898
rtoes 4.95236
lfemur -25.18 5.91063 -19.9727
ltibia 35.7894
lfoot -16.3174 7.38543
ltoes 2.39408
329
root 0.409285 17.2073 -6.98969 8.12983 1.22865 -0.775114
lowerback 5.34783 0.0170781 -1.22791
upperback 5.65 -0.0386777 1.46664
thorax 2.82964 -0.0918494 2.20099
lowerneck -13.2118 -0.512514 -1.62529
upperneck 31.831 -0.801252 1.54384
head 12.7981 -0.342654 0.763181
rclavicle 4.96962e-015 5.1684e-015
rhumerus -60.3756 -30.7782 -41.4749
rradius 17.3266
rwrist 51.7745
rhand -13.6986 -25.4603
rfingers 7.12502
rthumb 12.4197 -55.0714
lclavicle 4.96962e-015 5.1684e-015
lhumerus -51.6833 -2.28966 80.7322
lradius 15.2999
lwrist 2.65347
lhand -13.9005 5.05707
lfingers 7.12502
lthumb 12.2251 34.6798
rfemur -25.7471 -3.55365 18.4153
rtibia 38.5445
rfoot -19.1247 -3.1007
rtoes 4.95313
lfemur -25.195 5.92543 -19.9981
ltibia 35.6943
lfoot -16.3149 7.26491
ltoes 2.39375
330
root 0.407446 17.2112 -6.98224 8.1991 1.32442 -0.760919
lowerback 5.36559 0.0152746 -1.21023
upperback 5.66719 -0.0407422 1.47596
thorax 2.83773 -0.0926045 2.20081
lowerneck -13.1864 -0.536637 -1.65352
upperneck 31.8164 -0.828601 1.54626
head 12.7874 -0.357434 0.765036
rclavicle -5.36719e-015 -3.77691e-015
rhumerus -60.6585 -30.4918 -41.3155
rradius 17.3612
rwrist 51.7516
rhand -13.4706 -25.2946
rfingers 7.12502
rthumb 12.6395 -54.8921
lclavicle -5.36719e-015 -3.77691e-015
lhumerus -51.5362 -1.8107 80.029
lradius 15.0296
lwrist 2.11568
lhand -14.3841 4.83732
lfingers 7.12502
lthumb 11.7587 34.4873
rfemur -25.7374 -3.58106 18.4143
rtibia 38.4693
rfoot -19.1166 -3.15573
rtoes 4.96764
lfemur -25.2135 5.9397 -20.0132
ltibia 35.6103
lfoot -16.3171 7.14827
ltoes 2.40713
331
root 0.405525 17.2147 -6.97476 8.26401 1.41724 -0.756695
lowerback 5.38105 0.0166514 -1.18245
upperback 5.68511 -0.038325 1.48821
thorax 2.84761 -0.0908474 2.19786
lowerneck -13.1623 -0.564344 -1.68507
upperneck 31.7946 -0.862266 1.55524
head 12.7741 -0.374508 0.769039
rclavicle -4.47266e-015 1.11319e-014
rhumerus -60.8618 -30.164 -41.294
rradius 17.4223
rwrist 51.5812
rhand -13.3026 -25.0915
rfingers 7.12502
rthumb 12.8014 -54.679
lclavicle -4.47266e-015 1.11319e-014
lhumerus -51.3441 -1.34904 79.3561
lradius 14.7886
lwrist 1.65386
lhand -14.9142 4.55409
lfingers 7.12502
lthumb 11.2475 34.2326
rfemur -25.7227 -3.61241 18.424
rtibia 38.3936
rfoot -19.1127 -3.19819
rtoes 4.99117
lfemur -25.2321 5.94915 -20.016
ltibia 35.5366
lfoot -16.3223 7.04197
ltoes 2.42285
332
root 0.403535 17.2178 -6.9673 8.32482 1.50827 -0.757015
lowerback 5.39441 0.0202917 -1.14979
upperback 5.70445 -0.0327738 1.50173
thorax 2.85998 -0.0874085 2.19339
lowerneck -13.1521 -0.593543 -1.71052
upperneck 31.7773 -0.898728 1.56158
head 12.7656 -0.392365 0.770592
rclavicle 2.98177e-016 -1.88845e-014
rhumerus -60.9995 -29.8187 -41.3746
rradius 17.5031
rwrist 51.2984
rhand -13.1897 -24.8585
rfingers 7.12502
rthumb 12.9103 -54.4392
lclavicle 2.98177e-016 -1.88845e-014
lhumerus -51.1155 -0.924528 78.735
lradius 14.5902
lwrist 1.27191
lhand -15.4703 4.20812
lfingers 7.12502
lthumb 10.7112 33.9151
rfemur -25.7059 -3.65104 18.4389
rtibia 38.3216
rfoot -19.1122 -3.2296
rtoes 5.00666
lfemur -25.2493 5.94776 -20.0121
ltibia 35.4705
lfoot -16.3277 6.95212
ltoes 2.43288
333
root 0.401353 17.2206 -6.95986 8.38207 1.59555 -0.758007
lowerback 5.40634 0.0266157 -1.11891
upperback 5.72304 -0.0237146 1.51598
thorax 2.87224 -0.0822822 2.19057
lowerneck -13.1415 -0.623701 -1.73306
upperneck 31.7592 -0.936927 1.56663
head 12.7568 -0.410797 0.770883
rclavicle 3.97569e-015 -1.55052e-014
rhumerus -61.0876 -29.4711 -41.5253
rradius 17.5935
rwrist 50.9504
rhand -13.1505 -24.6217
rfingers 7.12502
rthumb 12.9481 -54.2
lclavicle 3.97569e-015 -1.55052e-014
lhumerus -50.8628 -0.558845 78.1887
lradius 14.4412
lwrist 0.981525
lhand -16.0155 3.85895
lfingers 7.12502
lthumb 10.1852 33.5924
rfemur -25.6899 -3.69355 18.4547
rtibia 38.2564
rfoot -19.1147 -3.24949
rtoes 5.03986
lfemur -25.2646 5.93409 -20.0054
ltibia 35.4099
lfoot -16.3313 6.88038
ltoes 2.43637
334
root 0.399027 17.2232 -6.95238 8.43435 1.68005 -0.75089
lowerback 5.41953 0.0337896 -1.09679
upperback 5.7413 -0.0137401 1.52749
thorax 2.88343 -0.0769331 2.18983
lowerneck -13.1299 -0.653383 -1.75594
upperneck 31.7409 -0.975066 1.57385
head 12.7478 -0.428968 0.772087
rclavicle 2.28602e-015 9.93923e-015
rhumerus -61.1333 -29.1322 -41.7293
rradius 17.6847
rwrist 50.5714
rhand -13.1973 -24.3986
rfingers 7.12502
rthumb 12.903 -53.9797
lclavicle 2.28602e-015 9.93923e-015
lhumerus -50.5962 -0.265308 77.7308
lradius 14.3457
lwrist 0.793665
lhand -16.6723 3.38499
lfingers 7.12502
lthumb 9.5515 33.1485
rfemur -25.6741 -3.74358 18.4618
rtibia 38.2004
rfoot -19.1204 -3.25889
rtoes 5.07675
lfemur -25.2739 5.90444 -20.0056
ltibia 35.3519
lfoot -16.3312 6.83075
ltoes 2.42721
335
root 0.396512 17.2257 -6.94494 8.48472 1.75977 -0.740773
lowerback 5.4307 0.0402857 -1.07897
upperback 5.75823 -0.00474799 1.53697
thorax 2.89442 -0.0721719 2.18942
lowerneck -13.1178 -0.678907 -1.77443
upperneck 31.7255 -1.00742 1.57788
head 12.7396 -0.444516 0.772153
rclavicle 2.98177e-016 1.23246e-014
rhumerus -61.143 -28.8112 -41.9684
rradius 17.7718
rwrist 50.1978
rhand -13.3436 -24.1924
rfingers 7.12502
rthumb 12.7619 -53.7823
lclavicle 2.98177e-016 1.23246e-014
lhumerus -50.3213 -0.0419456 77.3629
lradius 14.3011
lwrist 0.71913
lhand -17.3949 2.85113
lfingers 7.12502
lthumb 8.85424 32.6454
rfemur -25.6624 -3.79749 18.466
rtibia 38.1527
rfoot -19.127 -3.25707
rtoes 5.12626
lfemur -25.2805 5.86113 -20.007
ltibia 35.2956
lfoot -16.3263 6.80046
ltoes 2.41511
336
root 0.393752 17.228 -6.93751 8.53221 1.83447 -0.727746
lowerback 5.44181 0.0458463 -1.0655
upperback 5.77389 0.00291403 1.54417
thorax 2.90419 -0.0681619 2.18913
lowerneck -13.1163 -0.698943 -1.78076
upperneck 31.7249 -1.03147 1.5705
head 12.7396 -0.456432 0.767002
rclavicle -1.98785e-016 1.51076e-014
rhumerus -61.1293 -28.5218 -42.2187
rradius 17.8527
rwrist 49.8674
rhand -13.5798 -24.0015
rfingers 7.12502
rthumb 12.5342 -53.6056
lclavicle -1.98785e-016 1.51076e-014
lhumerus -50.0385 0.121075 77.0748
lradius 14.2981
lwrist 0.756114
lhand -18.2713 2.15992
lfingers 7.12502
lthumb 8.00847 31.9882
rfemur -25.652 -3.8505 18.4675
rtibia 38.1105
rfoot -19.134 -3.24879
rtoes 5.18978
lfemur -25.2832 5.80493 -20.009
ltibia 35.2402
lfoot -16.316 6.78936
ltoes 2.40348
337
root 0.390751 17.2304 -6.93006 8.57872 1.90162 -0.718997
lowerback 5.44944 0.0508979 -1.04969
upperback 5.78788 0.00999372 1.55052
thorax 2.91418 -0.0643344 2.18666
lowerneck -13.1119 -0.715005 -1.78511
upperneck 31.7295 -1.05084 1.56424
head 12.7411 -0.465962 0.762647
rclavicle -1.39149e-015 1.21259e-014
rhumerus -61.1026 -28.2784 -42.4561
rradius 17.9217
rwrist 49.6283
rhand -13.9039 -23.8306
rfingers 7.12502
rthumb 12.2218 -53.4535
lclavicle -1.39149e-015 1.21259e-014
lhumerus -49.7497 0.238453 76.8526
lradius 14.3318
lwrist 0.907694
lhand -19.2611 1.36144
lfingers 7.12502
lthumb 7.05311 31.2239
rfemur -25.6435 -3.89852 18.4747
rtibia 38.07
rfoot -19.139 -3.23869
rtoes 5.24693
lfemur -25.2849 5.741 -20.004
ltibia 35.1867
lfoot -16.3005 6.79325
ltoes 2.39758
338
root 0.387571 17.2328 -6.92254 8.62305 1.96139 -0.717365
lowerback 5.4542 0.0554299 -1.02861
upperback 5.80049 0.0165437 1.55682
thorax 2.92434 -0.0605767 2.18119
lowerneck -13.1191 -0.725397 -1.77443
upperneck 31.7529 -1.06233 1.54613
head 12.7524 -0.471765 0.752351
rclavicle -9.54166e-015 -2.28602e-014
rhumerus -61.0642 -28.0789 -42.6789
rradius 17.9882
rwrist 49.4636
rhand -14.2619 -23.6823
rfingers 7.12502
rthumb 11.8765 -53.3255
lclavicle -9.54166e-015 -2.28602e-014
lhumerus -49.4528 0.334921 76.6707
lradius 14.393
lwrist 1.16011
lhand -20.2852 0.495628
lfingers 7.12502
lthumb 6.0645 30.3888
rfemur -25.6334 -3.93867 18.4903
rtibia 38.028
rfoot -19.1424 -3.22836
rtoes 5.30857
lfemur -25.2843 5.67279 -19.9892
ltibia 35.1348
lfoot -16.2821 6.80867
ltoes 2.39454
